# AST/ASF file generated using VICON BodyLanguage
# -----------------------------------------------
:version 1.10
:name VICON
:units
  mass 1.0
  length 0.45
  angle deg
:documentation
   .ast/.asf automatically generated from VICON data using
   VICON BodyBuilder and BodyLanguage model FoxedUp or BRILLIANT.MOD
:root
   order TX TY TZ RX RY RZ
   axis XYZ
   position 0 0 0  
   orientation 0 0 0 
:bonedata
  begin
     id 1 
     name lhipjoint
     direction 0.602128 -0.715006 0.355257 
     length 2.21237 
     axis 0 0 0  XYZ
  end
  begin
     id 2 
     name lfemur
     direction 0.34202 -0.939693 0  
     length 6.71649  
     axis 0 0 20  XYZ
    dof rx ry rz
    limits (-160.0 20.0)
           (-70.0 70.0)
           (-60.0 70.0)
  end
  begin
     id 3 
     name ltibia
     direction 0.34202 -0.939693 0   
     length 6.97123   
     axis 0 0 20   XYZ
    dof rx
    limits (-10.0 170.0)
  end
  begin
     id 4 
     name lfoot
     direction 0.0655697 -0.180151 0.981451   
     length 1.80924   
     axis -90 7.62852e-016 20   XYZ
    dof rx rz
    limits (-45.0 90.0)
           (-70.0 20.0)
  end
  begin
     id 5 
     name ltoes
     direction 1.53545e-011 -4.21827e-011 1   
     length 0.916331   
     axis -90 7.62852e-016 20   XYZ
    dof rx
    limits (-90.0 20.0)
  end
  begin
     id 6 
     name rhipjoint
     direction -0.625414 -0.698792 0.347201   
     length 2.2637  
     axis 0 0 0  XYZ 
  end
  begin
     id 7 
     name rfemur
     direction -0.34202 -0.939693 0   
     length 7.07595   
     axis 0 0 -20   XYZ
    dof rx ry rz
    limits (-160.0 20.0)
           (-70.0 70.0)
           (-70.0 60.0)
  end
  begin
     id 8 
     name rtibia
     direction -0.34202 -0.939693 0   
     length 7.22924   
     axis 0 0 -20   XYZ
    dof rx
    limits (-10.0 170.0)
 end
 begin
     id 9 
     name rfoot
     direction -0.0766747 -0.210662 0.974547   
     length 1.98482  
     axis -90 -7.62852e-016 -20   XYZ
    dof rx rz
    limits (-45.0 90.0)
           (-20.0 70.0)
  end
  begin
     id 10 
     name rtoes
     direction -1.53532e-011 -4.21867e-011 1   
     length 0.999842   
     axis -90 -7.62852e-016 -20   XYZ
    dof rx
    limits (-90.0 20.0)
  end
  begin
     id 11 
     name lowerback
     direction -0.0224668 0.997354 -0.0691422   
     length 2.09945   
     axis 0 0 0   XYZ
    dof rx ry rz
    limits (-20.0 45.0)
           (-30.0 30.0)
           (-30.0 30.0)
  end
  begin
     id 12 
     name upperback
     direction 0.0134698 0.998451 -0.0539888   
     length 2.09758   
     axis 0 0 0   XYZ
    dof rx ry rz
    limits (-20.0 45.0)
           (-30.0 30.0)
           (-30.0 30.0)
  end
  begin
     id 13 
     name thorax
     direction 0.0241905 0.99948 -0.0213333   
     length 2.10428   
     axis 0 0 0   XYZ
    dof rx ry rz
    limits (-20.0 45.0)
           (-30.0 30.0)
           (-30.0 30.0)
  end
  begin
     id 14 
     name lowerneck
     direction -0.00866847 0.995978 0.0891737   
     length 1.3959   
     axis 0 0 0   XYZ
    dof rx ry rz
    limits (-20.0 45.0)
           (-30.0 30.0)
           (-30.0 30.0)
  end
  begin
     id 15 
     name upperneck
     direction 0.0680679 0.992203 0.104404   
     length 1.39452   
     axis 0 0 0   XYZ
    dof rx ry rz
    limits (-20.0 45.0)
           (-30.0 30.0)
           (-30.0 30.0)
  end
  begin
     id 16
     name head
     direction 0.0242216 0.999358 0.0264054  
     length 1.40433  
     axis 0 0 0   XYZ
    dof rx ry rz
    limits (-20.0 45.0)
           (-30.0 30.0)
           (-30.0 30.0)
  end
  begin
     id 17 
     name lclavicle
     direction 0.929368 0.362991 -0.0671771  
     length 3.04887  
     axis 0 0 0   XYZ
    dof ry rz
    limits (-20.0 10.0)
           (0.0 20.0)
  end
  begin
     id 18 
     name lhumerus
     direction 1 -4.48967e-011 -7.13741e-028   
     length 4.77195   
     axis -180 -30 -90   XYZ
    dof rx ry rz
    limits (-60.0 90.0)
           (-90.0 90.0)
           (-90.0 90.0)
  end
  begin
     id 19
     name lradius
     direction 1 -4.48977e-011 3.60404e-027   
     length 2.98444   
     axis -180 -30 -90   XYZ
    dof rx
    limits (-10.0 170.0)
  end
  begin
     id 20
     name lwrist
     direction 1 -4.48997e-011 7.54877e-027   
     length 1.49222   
     axis -7.18178e-015 90 90   XYZ
    dof ry
    limits (-180.0 0.0)
 end
  begin
     id 21 
     name lhand
     direction 1 -4.489e-011 1.51105e-026   
     length 0.992285   
     axis -9.63605e-015 90 90   XYZ
    dof rx rz
    limits (-90.0 90.0)
           (-45.0 45.0)
  end
  begin
     id 22 
     name lfingers
     direction 1 -4.48998e-011 3.01948e-026   
     length 0.800006   
     axis -1.92718e-014 90 90   XYZ
    dof rx
    limits (0.0 90.0)
  end
  begin
     id 23
     name lthumb
     direction 0.707107 -6.34881e-011 0.707107   
     length 1.14865   
     axis -90 45 -3.53137e-014   XYZ
    dof rx rz
    limits (-45.0 45.0)
           (-45.0 45.0)
  end
  begin
     id 24 
     name rclavicle
     direction -0.945672 0.324529 0.0196374   
     length 3.4236  
     axis 0 0 0   XYZ 
    dof ry rz
    limits (-10.0 20.0)
           (-20.0 0.0)
  end
  begin
     id 25 
     name rhumerus
     direction -1 -4.4896e-011 1.02757e-029  
     length 4.62052   
     axis -180 30 90   XYZ
    dof rx ry rz
    limits (-90.0 60.0)
           (-90.0 90.0)
           (-90.0 90.0)
  end
  begin
     id 26 
     name rradius
     direction -1 -4.48982e-011 3.85962e-027   
     length 2.95332   
     axis -180 30 90   XYZ
    dof rx
    limits (-10.0 170.0)
  end
  begin
     id 27 
     name rwrist
     direction -1 -4.48961e-011 7.55118e-027   
     length 1.47666   
     axis -7.18178e-015 -90 -90   XYZ
    dof ry
    limits (-180.0 0.0)
  end
  begin
     id 28
     name rhand
     direction -1 -4.48984e-011 1.50994e-026   
     length 0.990956   
     axis -9.63605e-015 -90 -90   XYZ
    dof rx rz
    limits (-90.0 90.0)
           (-45.0 45.0)
  end
  begin
     id 29
     name rfingers
     direction -1 -4.4892e-011 3.02158e-026   
     length 0.798934   
     axis -1.92718e-014 -90 -90   XYZ
    dof rx
    limits (0.0 90.0)
  end
  begin
     id 30
     name rthumb
     direction -0.707107 -6.34916e-011 0.707107   
     length 1.14711   
     axis -90 -45 3.53137e-014   XYZ
    dof rx rz
    limits (-45.0 45.0)
           (-45.0 45.0)
  end
:hierarchy
  begin
    root lhipjoint rhipjoint lowerback
    lhipjoint lfemur
    lfemur ltibia
    ltibia lfoot
    lfoot ltoes
    rhipjoint rfemur
    rfemur rtibia
    rtibia rfoot
    rfoot rtoes
    lowerback upperback
    upperback thorax
    thorax lowerneck lclavicle rclavicle
    lowerneck upperneck
    upperneck head
    lclavicle lhumerus
    lhumerus lradius
    lradius lwrist
    lwrist lhand lthumb
    lhand lfingers
    rclavicle rhumerus
    rhumerus rradius
    rradius rwrist
    rwrist rhand rthumb
    rhand rfingers
  end

#!OML:ASF H:\ManfredObstacles\Project 1\Capture day 1\Session 1\Male.ASF
:FULLY-SPECIFIED
:DEGREES
1
root 0.328545 16.1955 32.5154 -167.456 -3.32046 179.856
lowerback -14.106 -1.73669 -3.08581
upperback -0.4945 -1.9941 0.87137
thorax 7.53449 -1.14474 2.26023
lowerneck 3.62809 -2.06635 -6.09756
upperneck -16.1289 -1.26868 8.55912
head -5.2996 -0.47272 3.74349
rclavicle 1.23012e-014 7.17023e-015
rhumerus -36.4817 -23.987 -76.1541
rradius 24.069
rwrist 38.0619
rhand -2.01882 -6.66581
rfingers 7.12502
rthumb 23.6553 -35.2304
lclavicle 1.23012e-014 7.17023e-015
lhumerus -26.6851 9.37807 87.4573
lradius 22.1995
lwrist -25.1636
lhand -9.59354 7.40352
lfingers 7.12502
lthumb 16.375 36.7323
rfemur -18.5113 -6.73867 23.5553
rtibia 28.838
rfoot -27.742 5.43235
rtoes 1.75669
lfemur -16.2615 0.282696 -20.2109
ltibia 21.1973
lfoot -11.1123 -10.4767
ltoes -11.3606
2
root 0.331064 16.1926 32.5043 -167.617 -3.38379 179.857
lowerback -14.1162 -1.73143 -3.08051
upperback -0.46527 -1.97993 0.798556
thorax 7.56787 -1.13622 2.18196
lowerneck 3.48248 -2.12847 -6.03445
upperneck -16.1371 -1.32674 8.56787
head -5.27277 -0.497117 3.73632
rclavicle -2.90893e-014 -8.05078e-015
rhumerus -36.456 -23.7094 -76.5582
rradius 24.2419
rwrist 37.5051
rhand -2.15625 -6.58881
rfingers 7.12502
rthumb 23.5235 -35.1704
lclavicle -2.90893e-014 -8.05078e-015
lhumerus -26.8409 11.2204 86.5943
lradius 20.7127
lwrist -27.1287
lhand -10.7144 5.26171
lfingers 7.12502
lthumb 15.2956 34.6761
rfemur -18.2355 -6.88719 23.5623
rtibia 28.7154
rfoot -27.5549 5.56717
rtoes 2.14707
lfemur -16.1595 0.385409 -20.2096
ltibia 21.3793
lfoot -11.2356 -10.5144
ltoes -11.4157
3
root 0.337448 16.1901 32.493 -167.812 -3.40703 180.091
lowerback -14.0916 -1.7044 -2.92564
upperback -0.428467 -1.96987 0.837608
thorax 7.58908 -1.12616 2.13824
lowerneck 3.37408 -2.16153 -5.94958
upperneck -16.2126 -1.34701 8.51507
head -5.27725 -0.500062 3.70574
rclavicle -1.56046e-014 2.88238e-015
rhumerus -36.4224 -23.5983 -76.7845
rradius 24.3106
rwrist 37.3909
rhand -2.13926 -6.71385
rfingers 7.12502
rthumb 23.5398 -35.2933
lclavicle -1.56046e-014 2.88238e-015
lhumerus -27.1284 13.8471 85.3754
lradius 19.1411
lwrist -29.6543
lhand -11.0906 4.07623
lfingers 7.12502
lthumb 14.9332 33.5179
rfemur -17.9067 -6.89907 23.8347
rtibia 28.5447
rfoot -27.3688 5.57265
rtoes 2.03933
lfemur -16.0705 0.521724 -19.9247
ltibia 21.6588
lfoot -11.3488 -10.6004
ltoes -10.9149
4
root 0.34524 16.1876 32.4841 -167.921 -3.43698 180.353
lowerback -14.12 -1.67263 -2.76207
upperback -0.418825 -1.95756 0.892818
thorax 7.61102 -1.11572 2.10634
lowerneck 3.24154 -2.175 -5.8669
upperneck -16.2572 -1.34047 8.47155
head -5.26996 -0.490131 3.6763
rclavicle 1.22284e-014 -3.03147e-015
rhumerus -36.468 -23.6217 -76.8745
rradius 24.2472
rwrist 37.6385
rhand -2.22442 -6.81479
rfingers 7.12502
rthumb 23.4581 -35.4047
lclavicle 1.22284e-014 -3.03147e-015
lhumerus -27.5847 16.4682 84.0672
lradius 17.8349
lwrist -32.0279
lhand -8.54628 7.9591
lfingers 7.12502
lthumb 17.3832 37.2018
rfemur -17.7049 -6.78218 24.1422
rtibia 28.4243
rfoot -27.1888 5.53643
rtoes 2.21251
lfemur -16.0426 0.579327 -19.5949
ltibia 21.8956
lfoot -11.4654 -10.6602
ltoes -10.3555
5
root 0.350124 16.1824 32.4759 -168.071 -3.4116 180.487
lowerback -14.1118 -1.61149 -2.66215
upperback -0.384112 -1.88824 0.866582
thorax 7.6353 -1.07763 2.03607
lowerneck 3.03008 -2.22805 -5.69668
upperneck -16.2551 -1.37823 8.42501
head -5.23234 -0.504183 3.63125
rclavicle -3.93904e-014 -9.93923e-015
rhumerus -36.6186 -23.7551 -76.913
rradius 24.1838
rwrist 37.9389
rhand -2.17545 -6.94281
rfingers 7.12502
rthumb 23.5051 -35.5268
lclavicle -3.93904e-014 -9.93923e-015
lhumerus -28.1223 19.1017 82.6249
lradius 16.6513
lwrist -34.4088
lhand -8.47124 8.40063
lfingers 7.12502
lthumb 17.4554 37.6369
rfemur -17.48 -6.74153 24.2694
rtibia 28.3449
rfoot -27.0582 5.66929
rtoes 2.68148
lfemur -15.9493 0.690805 -19.4555
ltibia 22.0949
lfoot -11.6752 -10.6647
ltoes -11.5336
6
root 0.352048 16.1754 32.4683 -168.348 -3.33702 180.525
lowerback -13.9897 -1.53827 -2.60656
upperback -0.300066 -1.7903 0.797785
thorax 7.64731 -1.02487 1.95344
lowerneck 2.85311 -2.29766 -5.64482
upperneck -16.243 -1.4308 8.52707
head -5.19289 -0.5289 3.65424
rclavicle -4.38569e-015 -4.47266e-015
rhumerus -36.821 -24.0437 -76.8294
rradius 24.0751
rwrist 38.381
rhand -2.05349 -7.06447
rfingers 7.12502
rthumb 23.6221 -35.6334
lclavicle -4.38569e-015 -4.47266e-015
lhumerus -28.8397 22.6357 80.6521
lradius 15.3751
lwrist -37.7659
lhand -8.4963 8.57721
lfingers 7.12502
lthumb 17.4312 37.8156
rfemur -17.1433 -6.81335 24.2593
rtibia 28.3263
rfoot -26.8297 5.94298
rtoes 3.31658
lfemur -15.6681 0.792414 -19.4419
ltibia 22.2137
lfoot -11.8702 -10.6103
ltoes -12.7811
